# Created by Kenney (www.kenney.nl)

mtllib silver-block.mtl

v 4 2 4
v 4 2 -4
v 1 2 4
v 1 2 -4
v 1 5 -4
v 1 5 4
v 4 5 -4
v 4 5 4
v 4 0 4
v 4 0 -4
v 3 0 4
v 3 0 -4
v 3 2 -4
v 3 2 4
v 4 -3 4
v 4 -3 -4
v 1 -3 4
v 1 -3 -4
v 1 0 -4
v 1 0 4
v 2 0 4
v 2 0 -4
v 2 2 -4
v 2 2 4
v 2 0 3.5
v 2 0 -3.5
v -2 0 3.5
v -2 0 -3.5
v -2 2 -3.5
v -2 2 3.5
v 2 2 -3.5
v 2 2 3.5
v 1 4 4
v 1 4 -4
v -1 4 4
v -1 4 -4
v -1 5 -4
v -1 5 4
v 1 3 4
v 1 3 -4
v -4 3 4
v -4 3 -4
v -4 4 -4
v -4 4 4
v 1 2 3.5
v 1 2 -3.5
v -1 2 3.5
v -1 2 -3.5
v -1 3 -3.5
v -1 3 3.5
v 1 3 -3.5
v 1 3 3.5
v 1 -1 3.5
v 1 -1 -3.5
v -1 -1 3.5
v -1 -1 -3.5
v -1 0 -3.5
v -1 0 3.5
v 1 0 -3.5
v 1 0 3.5
v 1 -2 4
v 1 -2 -4
v -4 -2 4
v -4 -2 -4
v -4 -1 -4
v -4 -1 4
v 1 -1 -4
v 1 -1 4
v -1 -3 4
v -1 -3 -4
v -1 -2 -4
v -1 -2 4
v -4 5 -4
v -4 5 4
v -1 2 4
v -1 2 -4
v -4 2 4
v -4 2 -4
v -1 3 -4
v -1 3 4
v -1 -1 4
v -1 -1 -4
v -4 0 -4
v -4 0 4
v -1 0 -4
v -1 0 4
v -4 -3 4
v -4 -3 -4
v -2 0 4
v -2 0 -4
v -3 0 4
v -3 0 -4
v -3 2 -4
v -3 2 4
v -2 2 -4
v -2 2 4

vn 0 -1 0
vn -1 0 0
vn 0 0 -1
vn 0 0 1
vn 1 0 0
vn 0 1 0

vt 0.0625 0.0625
vt 0.1875 0.0625

usemtl palette(Clone)

f 3/1/1 2/1/1 1/1/1
f 2/1/1 3/1/1 4/1/1
f 3/1/2 5/1/2 4/1/2
f 5/1/2 3/1/2 6/1/2
f 5/1/3 2/1/3 4/1/3
f 2/1/3 5/1/3 7/1/3
f 8/1/4 3/1/4 1/1/4
f 3/1/4 8/1/4 6/1/4
f 8/1/5 2/1/5 7/1/5
f 2/1/5 8/1/5 1/1/5
f 5/1/6 8/1/6 7/1/6
f 8/1/6 5/1/6 6/1/6
f 11/2/1 10/2/1 9/2/1
f 10/2/1 11/2/1 12/2/1
f 11/2/2 13/2/2 12/2/2
f 13/2/2 11/2/2 14/2/2
f 13/2/3 10/2/3 12/2/3
f 10/2/3 13/2/3 2/2/3
f 1/2/4 11/2/4 9/2/4
f 11/2/4 1/2/4 14/2/4
f 1/2/5 10/2/5 2/2/5
f 10/2/5 1/2/5 9/2/5
f 13/2/6 1/2/6 2/2/6
f 1/2/6 13/2/6 14/2/6
f 17/1/1 16/1/1 15/1/1
f 16/1/1 17/1/1 18/1/1
f 17/1/2 19/1/2 18/1/2
f 19/1/2 17/1/2 20/1/2
f 19/1/3 16/1/3 18/1/3
f 16/1/3 19/1/3 10/1/3
f 9/1/4 17/1/4 15/1/4
f 17/1/4 9/1/4 20/1/4
f 9/1/5 16/1/5 10/1/5
f 16/1/5 9/1/5 15/1/5
f 19/1/6 9/1/6 10/1/6
f 9/1/6 19/1/6 20/1/6
f 21/1/1 12/1/1 11/1/1
f 12/1/1 21/1/1 22/1/1
f 21/1/2 23/1/2 22/1/2
f 23/1/2 21/1/2 24/1/2
f 23/1/3 12/1/3 22/1/3
f 12/1/3 23/1/3 13/1/3
f 14/1/4 21/1/4 11/1/4
f 21/1/4 14/1/4 24/1/4
f 14/1/5 12/1/5 13/1/5
f 12/1/5 14/1/5 11/1/5
f 23/1/6 14/1/6 13/1/6
f 14/1/6 23/1/6 24/1/6
f 27/2/1 26/2/1 25/2/1
f 26/2/1 27/2/1 28/2/1
f 27/2/2 29/2/2 28/2/2
f 29/2/2 27/2/2 30/2/2
f 29/2/3 26/2/3 28/2/3
f 26/2/3 29/2/3 31/2/3
f 32/2/4 27/2/4 25/2/4
f 27/2/4 32/2/4 30/2/4
f 32/2/5 26/2/5 31/2/5
f 26/2/5 32/2/5 25/2/5
f 29/2/6 32/2/6 31/2/6
f 32/2/6 29/2/6 30/2/6
f 35/2/1 34/2/1 33/2/1
f 34/2/1 35/2/1 36/2/1
f 35/2/2 37/2/2 36/2/2
f 37/2/2 35/2/2 38/2/2
f 37/2/3 34/2/3 36/2/3
f 34/2/3 37/2/3 5/2/3
f 6/2/4 35/2/4 33/2/4
f 35/2/4 6/2/4 38/2/4
f 6/2/5 34/2/5 5/2/5
f 34/2/5 6/2/5 33/2/5
f 37/2/6 6/2/6 5/2/6
f 6/2/6 37/2/6 38/2/6
f 41/1/1 40/1/1 39/1/1
f 40/1/1 41/1/1 42/1/1
f 41/1/2 43/1/2 42/1/2
f 43/1/2 41/1/2 44/1/2
f 43/1/3 40/1/3 42/1/3
f 40/1/3 43/1/3 34/1/3
f 33/1/4 41/1/4 39/1/4
f 41/1/4 33/1/4 44/1/4
f 33/1/5 40/1/5 34/1/5
f 40/1/5 33/1/5 39/1/5
f 43/1/6 33/1/6 34/1/6
f 33/1/6 43/1/6 44/1/6
f 47/2/1 46/2/1 45/2/1
f 46/2/1 47/2/1 48/2/1
f 47/2/2 49/2/2 48/2/2
f 49/2/2 47/2/2 50/2/2
f 49/2/3 46/2/3 48/2/3
f 46/2/3 49/2/3 51/2/3
f 52/2/4 47/2/4 45/2/4
f 47/2/4 52/2/4 50/2/4
f 52/2/5 46/2/5 51/2/5
f 46/2/5 52/2/5 45/2/5
f 49/2/6 52/2/6 51/2/6
f 52/2/6 49/2/6 50/2/6
f 55/2/1 54/2/1 53/2/1
f 54/2/1 55/2/1 56/2/1
f 55/2/2 57/2/2 56/2/2
f 57/2/2 55/2/2 58/2/2
f 57/2/3 54/2/3 56/2/3
f 54/2/3 57/2/3 59/2/3
f 60/2/4 55/2/4 53/2/4
f 55/2/4 60/2/4 58/2/4
f 60/2/5 54/2/5 59/2/5
f 54/2/5 60/2/5 53/2/5
f 57/2/6 60/2/6 59/2/6
f 60/2/6 57/2/6 58/2/6
f 63/1/1 62/1/1 61/1/1
f 62/1/1 63/1/1 64/1/1
f 63/1/2 65/1/2 64/1/2
f 65/1/2 63/1/2 66/1/2
f 65/1/3 62/1/3 64/1/3
f 62/1/3 65/1/3 67/1/3
f 68/1/4 63/1/4 61/1/4
f 63/1/4 68/1/4 66/1/4
f 68/1/5 62/1/5 67/1/5
f 62/1/5 68/1/5 61/1/5
f 65/1/6 68/1/6 67/1/6
f 68/1/6 65/1/6 66/1/6
f 69/2/1 18/2/1 17/2/1
f 18/2/1 69/2/1 70/2/1
f 69/2/2 71/2/2 70/2/2
f 71/2/2 69/2/2 72/2/2
f 71/2/3 18/2/3 70/2/3
f 18/2/3 71/2/3 62/2/3
f 61/2/4 69/2/4 17/2/4
f 69/2/4 61/2/4 72/2/4
f 61/2/5 18/2/5 62/2/5
f 18/2/5 61/2/5 17/2/5
f 71/2/6 61/2/6 62/2/6
f 61/2/6 71/2/6 72/2/6
f 44/1/1 36/1/1 35/1/1
f 36/1/1 44/1/1 43/1/1
f 44/1/2 73/1/2 43/1/2
f 73/1/2 44/1/2 74/1/2
f 73/1/3 36/1/3 43/1/3
f 36/1/3 73/1/3 37/1/3
f 38/1/4 44/1/4 35/1/4
f 44/1/4 38/1/4 74/1/4
f 38/1/5 36/1/5 37/1/5
f 36/1/5 38/1/5 35/1/5
f 73/1/6 38/1/6 37/1/6
f 38/1/6 73/1/6 74/1/6
f 77/1/1 76/1/1 75/1/1
f 76/1/1 77/1/1 78/1/1
f 77/1/2 42/1/2 78/1/2
f 42/1/2 77/1/2 41/1/2
f 42/1/3 76/1/3 78/1/3
f 76/1/3 42/1/3 79/1/3
f 80/1/4 77/1/4 75/1/4
f 77/1/4 80/1/4 41/1/4
f 80/1/5 76/1/5 79/1/5
f 76/1/5 80/1/5 75/1/5
f 42/1/6 80/1/6 79/1/6
f 80/1/6 42/1/6 41/1/6
f 66/1/1 82/1/1 81/1/1
f 82/1/1 66/1/1 65/1/1
f 66/1/2 83/1/2 65/1/2
f 83/1/2 66/1/2 84/1/2
f 83/1/3 82/1/3 65/1/3
f 82/1/3 83/1/3 85/1/3
f 86/1/4 66/1/4 81/1/4
f 66/1/4 86/1/4 84/1/4
f 86/1/5 82/1/5 85/1/5
f 82/1/5 86/1/5 81/1/5
f 83/1/6 86/1/6 85/1/6
f 86/1/6 83/1/6 84/1/6
f 87/1/1 70/1/1 69/1/1
f 70/1/1 87/1/1 88/1/1
f 87/1/2 64/1/2 88/1/2
f 64/1/2 87/1/2 63/1/2
f 64/1/3 70/1/3 88/1/3
f 70/1/3 64/1/3 71/1/3
f 72/1/4 87/1/4 69/1/4
f 87/1/4 72/1/4 63/1/4
f 72/1/5 70/1/5 71/1/5
f 70/1/5 72/1/5 69/1/5
f 64/1/6 72/1/6 71/1/6
f 72/1/6 64/1/6 63/1/6
f 91/1/1 90/1/1 89/1/1
f 90/1/1 91/1/1 92/1/1
f 91/1/2 93/1/2 92/1/2
f 93/1/2 91/1/2 94/1/2
f 93/1/3 90/1/3 92/1/3
f 90/1/3 93/1/3 95/1/3
f 96/1/4 91/1/4 89/1/4
f 91/1/4 96/1/4 94/1/4
f 96/1/5 90/1/5 95/1/5
f 90/1/5 96/1/5 89/1/5
f 93/1/6 96/1/6 95/1/6
f 96/1/6 93/1/6 94/1/6
f 84/2/1 92/2/1 91/2/1
f 92/2/1 84/2/1 83/2/1
f 84/2/2 78/2/2 83/2/2
f 78/2/2 84/2/2 77/2/2
f 78/2/3 92/2/3 83/2/3
f 92/2/3 78/2/3 93/2/3
f 94/2/4 84/2/4 91/2/4
f 84/2/4 94/2/4 77/2/4
f 94/2/5 92/2/5 93/2/5
f 92/2/5 94/2/5 91/2/5
f 78/2/6 94/2/6 93/2/6
f 94/2/6 78/2/6 77/2/6

