# Created by Kenney (www.kenney.nl)

mtllib lantern.mtl

v 2 3 2
v 2 3 -2
v -2 3 2
v -2 3 -2
v -2 4 -2
v -2 4 2
v 2 4 -2
v 2 4 2
v 2 -1 2
v 2 -1 -2
v -2 -1 2
v -2 -1 -2
v 2 -2 2
v 2 -2 -2
v -2 -2 2
v -2 -2 -2
v 1 4 1
v 1 4 -1
v -1 4 1
v -1 4 -1
v -1 5 -1
v -1 5 1
v 1 5 -1
v 1 5 1

vn 0 -1 0
vn -1 0 0
vn 0 0 -1
vn 0 0 1
vn 1 0 0
vn 0 1 0

vt 0.0625 0.0625
vt 0.1875 0.0625

usemtl palette(Clone)

f 3/1/1 2/1/1 1/1/1
f 2/1/1 3/1/1 4/1/1
f 3/1/2 5/1/2 4/1/2
f 5/1/2 3/1/2 6/1/2
f 5/1/3 2/1/3 4/1/3
f 2/1/3 5/1/3 7/1/3
f 8/1/4 3/1/4 1/1/4
f 3/1/4 8/1/4 6/1/4
f 8/1/5 2/1/5 7/1/5
f 2/1/5 8/1/5 1/1/5
f 5/1/6 8/1/6 7/1/6
f 8/1/6 5/1/6 6/1/6
f 11/2/1 10/2/1 9/2/1
f 10/2/1 11/2/1 12/2/1
f 11/2/2 4/2/2 12/2/2
f 4/2/2 11/2/2 3/2/2
f 4/2/3 10/2/3 12/2/3
f 10/2/3 4/2/3 2/2/3
f 1/2/4 11/2/4 9/2/4
f 11/2/4 1/2/4 3/2/4
f 1/2/5 10/2/5 2/2/5
f 10/2/5 1/2/5 9/2/5
f 4/2/6 1/2/6 2/2/6
f 1/2/6 4/2/6 3/2/6
f 15/1/1 14/1/1 13/1/1
f 14/1/1 15/1/1 16/1/1
f 15/1/2 12/1/2 16/1/2
f 12/1/2 15/1/2 11/1/2
f 12/1/3 14/1/3 16/1/3
f 14/1/3 12/1/3 10/1/3
f 9/1/4 15/1/4 13/1/4
f 15/1/4 9/1/4 11/1/4
f 9/1/5 14/1/5 10/1/5
f 14/1/5 9/1/5 13/1/5
f 12/1/6 9/1/6 10/1/6
f 9/1/6 12/1/6 11/1/6
f 19/1/1 18/1/1 17/1/1
f 18/1/1 19/1/1 20/1/1
f 19/1/2 21/1/2 20/1/2
f 21/1/2 19/1/2 22/1/2
f 21/1/3 18/1/3 20/1/3
f 18/1/3 21/1/3 23/1/3
f 24/1/4 19/1/4 17/1/4
f 19/1/4 24/1/4 22/1/4
f 24/1/5 18/1/5 23/1/5
f 18/1/5 24/1/5 17/1/5
f 21/1/6 24/1/6 23/1/6
f 24/1/6 21/1/6 22/1/6

