# Created by Kenney (www.kenney.nl)

mtllib pickaxe.mtl

v 3 2 0.5
v 3 2 -0.5
v 1 2 0.5
v 1 2 -0.5
v 1 3 -0.5
v 1 3 0.5
v 3 3 -0.5
v 3 3 0.5
v 2 3 0.5
v 2 3 -0.5
v 0 3 0.5
v 0 3 -0.5
v 0 4 -0.5
v 0 4 0.5
v 2 4 -0.5
v 2 4 0.5
v -1 4 0.5
v -1 4 -0.5
v -1 5 -0.5
v -1 5 0.5
v 0 5 -0.5
v 0 5 0.5
v -1 3 0.5
v -1 3 -0.5
v 0 0 0.5
v 0 0 -0.5
v -1 0 0.5
v -1 0 -0.5
v 0 -2 0.5
v 0 -2 -0.5
v -1 -2 0.5
v -1 -2 -0.5
v -3 3 0.5
v -3 3 -0.5
v -3 4 -0.5
v -3 4 0.5
v -2 2 0.5
v -2 2 -0.5
v -4 2 0.5
v -4 2 -0.5
v -4 3 -0.5
v -4 3 0.5
v -2 3 -0.5
v -2 3 0.5

vn 0 -1 0
vn -1 0 0
vn 0 0 -1
vn 0 0 1
vn 1 0 0
vn 0 1 0

vt 0.0625 0.0625
vt 0.1875 0.0625
vt 0.3125 0.0625
vt 0.4375 0.0625

usemtl palette(Clone)

f 3/1/1 2/1/1 1/1/1
f 2/1/1 3/1/1 4/1/1
f 3/1/2 5/1/2 4/1/2
f 5/1/2 3/1/2 6/1/2
f 5/1/3 2/1/3 4/1/3
f 2/1/3 5/1/3 7/1/3
f 8/1/4 3/1/4 1/1/4
f 3/1/4 8/1/4 6/1/4
f 8/1/5 2/1/5 7/1/5
f 2/1/5 8/1/5 1/1/5
f 5/1/6 8/1/6 7/1/6
f 8/1/6 5/1/6 6/1/6
f 11/1/1 10/1/1 9/1/1
f 10/1/1 11/1/1 12/1/1
f 11/1/2 13/1/2 12/1/2
f 13/1/2 11/1/2 14/1/2
f 13/1/3 10/1/3 12/1/3
f 10/1/3 13/1/3 15/1/3
f 16/1/4 11/1/4 9/1/4
f 11/1/4 16/1/4 14/1/4
f 16/1/5 10/1/5 15/1/5
f 10/1/5 16/1/5 9/1/5
f 13/1/6 16/1/6 15/1/6
f 16/1/6 13/1/6 14/1/6
f 17/1/1 13/1/1 14/1/1
f 13/1/1 17/1/1 18/1/1
f 17/1/2 19/1/2 18/1/2
f 19/1/2 17/1/2 20/1/2
f 19/1/3 13/1/3 18/1/3
f 13/1/3 19/1/3 21/1/3
f 22/1/4 17/1/4 14/1/4
f 17/1/4 22/1/4 20/1/4
f 22/1/5 13/1/5 21/1/5
f 13/1/5 22/1/5 14/1/5
f 19/1/6 22/1/6 21/1/6
f 22/1/6 19/1/6 20/1/6
f 23/2/1 12/2/1 11/2/1
f 12/2/1 23/2/1 24/2/1
f 23/2/2 18/2/2 24/2/2
f 18/2/2 23/2/2 17/2/2
f 18/2/3 12/2/3 24/2/3
f 12/2/3 18/2/3 13/2/3
f 14/2/4 23/2/4 11/2/4
f 23/2/4 14/2/4 17/2/4
f 14/2/5 12/2/5 13/2/5
f 12/2/5 14/2/5 11/2/5
f 18/2/6 14/2/6 13/2/6
f 14/2/6 18/2/6 17/2/6
f 27/3/1 26/3/1 25/3/1
f 26/3/1 27/3/1 28/3/1
f 27/3/2 24/3/2 28/3/2
f 24/3/2 27/3/2 23/3/2
f 24/3/3 26/3/3 28/3/3
f 26/3/3 24/3/3 12/3/3
f 11/3/4 27/3/4 25/3/4
f 27/3/4 11/3/4 23/3/4
f 11/3/5 26/3/5 12/3/5
f 26/3/5 11/3/5 25/3/5
f 24/3/6 11/3/6 12/3/6
f 11/3/6 24/3/6 23/3/6
f 31/4/1 30/4/1 29/4/1
f 30/4/1 31/4/1 32/4/1
f 31/4/2 28/4/2 32/4/2
f 28/4/2 31/4/2 27/4/2
f 28/4/3 30/4/3 32/4/3
f 30/4/3 28/4/3 26/4/3
f 25/4/4 31/4/4 29/4/4
f 31/4/4 25/4/4 27/4/4
f 25/4/5 30/4/5 26/4/5
f 30/4/5 25/4/5 29/4/5
f 28/4/6 25/4/6 26/4/6
f 25/4/6 28/4/6 27/4/6
f 33/1/1 24/1/1 23/1/1
f 24/1/1 33/1/1 34/1/1
f 33/1/2 35/1/2 34/1/2
f 35/1/2 33/1/2 36/1/2
f 35/1/3 24/1/3 34/1/3
f 24/1/3 35/1/3 18/1/3
f 17/1/4 33/1/4 23/1/4
f 33/1/4 17/1/4 36/1/4
f 17/1/5 24/1/5 18/1/5
f 24/1/5 17/1/5 23/1/5
f 35/1/6 17/1/6 18/1/6
f 17/1/6 35/1/6 36/1/6
f 39/1/1 38/1/1 37/1/1
f 38/1/1 39/1/1 40/1/1
f 39/1/2 41/1/2 40/1/2
f 41/1/2 39/1/2 42/1/2
f 41/1/3 38/1/3 40/1/3
f 38/1/3 41/1/3 43/1/3
f 44/1/4 39/1/4 37/1/4
f 39/1/4 44/1/4 42/1/4
f 44/1/5 38/1/5 43/1/5
f 38/1/5 44/1/5 37/1/5
f 41/1/6 44/1/6 43/1/6
f 44/1/6 41/1/6 42/1/6

