# Created by Kenney (www.kenney.nl)

mtllib minecart.mtl

v 3 1 3
v 3 1 -3
v -3 1 3
v -3 1 -3
v -3 2 -3
v -3 2 3
v 3 2 -3
v 3 2 3
v 2 -2 2.5
v 2 -2 -2.5
v -2 -2 2.5
v -2 -2 -2.5
v -2 1 -2.5
v -2 1 2.5
v 2 1 -2.5
v 2 1 2.5
v 2 -3 3.5
v 2 -3 -3.5
v 1 -3 3.5
v 1 -3 -3.5
v 1 -2 -3.5
v 1 -2 3.5
v 2 -2 -3.5
v 2 -2 3.5
v -1 -3 3.5
v -1 -3 -3.5
v -2 -3 3.5
v -2 -3 -3.5
v -2 -2 -3.5
v -2 -2 3.5
v -1 -2 -3.5
v -1 -2 3.5
v -2 0 3.5
v -2 0 -3.5
v -4 0 3.5
v -4 0 -3.5
v -4 1 -3.5
v -4 1 3.5
v -2 1 -3.5
v -2 1 3.5
v -3 -2 2.5
v -3 -2 -2.5
v -3 0 -2.5
v -3 0 2.5
v -2 0 -2.5
v -2 0 2.5
v 3 -2 2.5
v 3 -2 -2.5
v 3 1 -2.5
v 3 1 2.5

vn 0 -1 0
vn -1 0 0
vn 0 0 -1
vn 0 0 1
vn 1 0 0
vn 0 1 0

vt 0.0625 0.0625
vt 0.1875 0.0625
vt 0.3125 0.0625

usemtl palette(Clone)

f 3/1/1 2/1/1 1/1/1
f 2/1/1 3/1/1 4/1/1
f 3/1/2 5/1/2 4/1/2
f 5/1/2 3/1/2 6/1/2
f 5/1/3 2/1/3 4/1/3
f 2/1/3 5/1/3 7/1/3
f 8/1/4 3/1/4 1/1/4
f 3/1/4 8/1/4 6/1/4
f 8/1/5 2/1/5 7/1/5
f 2/1/5 8/1/5 1/1/5
f 5/1/6 8/1/6 7/1/6
f 8/1/6 5/1/6 6/1/6
f 11/1/1 10/1/1 9/1/1
f 10/1/1 11/1/1 12/1/1
f 11/1/2 13/1/2 12/1/2
f 13/1/2 11/1/2 14/1/2
f 13/1/3 10/1/3 12/1/3
f 10/1/3 13/1/3 15/1/3
f 16/1/4 11/1/4 9/1/4
f 11/1/4 16/1/4 14/1/4
f 16/1/5 10/1/5 15/1/5
f 10/1/5 16/1/5 9/1/5
f 13/1/6 16/1/6 15/1/6
f 16/1/6 13/1/6 14/1/6
f 19/2/1 18/2/1 17/2/1
f 18/2/1 19/2/1 20/2/1
f 19/2/2 21/2/2 20/2/2
f 21/2/2 19/2/2 22/2/2
f 21/2/3 18/2/3 20/2/3
f 18/2/3 21/2/3 23/2/3
f 24/2/4 19/2/4 17/2/4
f 19/2/4 24/2/4 22/2/4
f 24/2/5 18/2/5 23/2/5
f 18/2/5 24/2/5 17/2/5
f 21/2/6 24/2/6 23/2/6
f 24/2/6 21/2/6 22/2/6
f 27/2/1 26/2/1 25/2/1
f 26/2/1 27/2/1 28/2/1
f 27/2/2 29/2/2 28/2/2
f 29/2/2 27/2/2 30/2/2
f 29/2/3 26/2/3 28/2/3
f 26/2/3 29/2/3 31/2/3
f 32/2/4 27/2/4 25/2/4
f 27/2/4 32/2/4 30/2/4
f 32/2/5 26/2/5 31/2/5
f 26/2/5 32/2/5 25/2/5
f 29/2/6 32/2/6 31/2/6
f 32/2/6 29/2/6 30/2/6
f 35/3/1 34/3/1 33/3/1
f 34/3/1 35/3/1 36/3/1
f 35/3/2 37/3/2 36/3/2
f 37/3/2 35/3/2 38/3/2
f 37/3/3 34/3/3 36/3/3
f 34/3/3 37/3/3 39/3/3
f 40/3/4 35/3/4 33/3/4
f 35/3/4 40/3/4 38/3/4
f 40/3/5 34/3/5 39/3/5
f 34/3/5 40/3/5 33/3/5
f 37/3/6 40/3/6 39/3/6
f 40/3/6 37/3/6 38/3/6
f 41/1/1 12/1/1 11/1/1
f 12/1/1 41/1/1 42/1/1
f 41/1/2 43/1/2 42/1/2
f 43/1/2 41/1/2 44/1/2
f 43/1/3 12/1/3 42/1/3
f 12/1/3 43/1/3 45/1/3
f 46/1/4 41/1/4 11/1/4
f 41/1/4 46/1/4 44/1/4
f 46/1/5 12/1/5 45/1/5
f 12/1/5 46/1/5 11/1/5
f 43/1/6 46/1/6 45/1/6
f 46/1/6 43/1/6 44/1/6
f 9/1/1 48/1/1 47/1/1
f 48/1/1 9/1/1 10/1/1
f 9/1/2 15/1/2 10/1/2
f 15/1/2 9/1/2 16/1/2
f 15/1/3 48/1/3 10/1/3
f 48/1/3 15/1/3 49/1/3
f 50/1/4 9/1/4 47/1/4
f 9/1/4 50/1/4 16/1/4
f 50/1/5 48/1/5 49/1/5
f 48/1/5 50/1/5 47/1/5
f 15/1/6 50/1/6 49/1/6
f 50/1/6 15/1/6 16/1/6

