# Created by Kenney (www.kenney.nl)

mtllib stone-01.mtl

v 4 1 2.5
v 4 1 -2.5
v 3 1 2.5
v 3 1 -2.5
v 3 2 -2.5
v 3 2 2.5
v 4 2 -2.5
v 4 2 2.5
v 1 2 2.5
v 1 2 -2.5
v 1 3 -2.5
v 1 3 2.5
v 3 3 -2.5
v 3 3 2.5
v 2 3 1.5
v 2 3 -1.5
v 1 3 1.5
v 1 3 -1.5
v 1 4 -1.5
v 1 4 1.5
v 2 4 -1.5
v 2 4 1.5
v 2 -1 3.5
v 2 -1 -3.5
v 1 -1 3.5
v 1 -1 -3.5
v 1 2 -3.5
v 1 2 3.5
v 2 2 -3.5
v 2 2 3.5
v 1 2 1.5
v 1 2 -1.5
v 0 2 1.5
v 0 2 -1.5
v 0 3 -1.5
v 0 3 1.5
v 0 1 2.5
v 0 1 -2.5
v -1 1 2.5
v -1 1 -2.5
v -1 2 -2.5
v -1 2 2.5
v 0 2 -2.5
v 0 2 2.5
v -1 -1 3.5
v -1 -1 -3.5
v -2 -1 3.5
v -2 -1 -3.5
v -2 1 -3.5
v -2 1 3.5
v -1 1 -3.5
v -1 1 3.5
v -2 1 1.5
v -2 1 -1.5
v -3 1 1.5
v -3 1 -1.5
v -3 2 -1.5
v -3 2 1.5
v -2 2 -1.5
v -2 2 1.5
v -3 1 0.5
v -3 1 -0.5
v -4 1 0.5
v -4 1 -0.5
v -4 2 -0.5
v -4 2 0.5
v -3 2 -0.5
v -3 2 0.5
v 4 0 3
v 4 0 -3
v 3 0 3
v 3 0 -3
v 3 1 -3
v 3 1 3
v 4 1 -3
v 4 1 3
v 3 -1 3.5
v 3 -1 -3.5
v 3 2 -3.5
v 3 2 3.5
v 1 1 2.5
v 1 1 -2.5
v 0 -1 3.5
v 0 -1 -3.5
v 0 1 -3.5
v 0 1 3.5
v -2 0 2.5
v -2 0 -2.5
v -3 0 2.5
v -3 0 -2.5
v -3 1 -2.5
v -3 1 2.5
v -2 1 -2.5
v -2 1 2.5
v -3 0 1.5
v -3 0 -1.5
v -4 0 1.5
v -4 0 -1.5
v -4 1 -1.5
v -4 1 1.5
v 4 -1 3.5
v 4 -1 -3.5
v 3 0 -3.5
v 3 0 3.5
v 4 0 -3.5
v 4 0 3.5
v 1 1 -3.5
v 1 1 3.5
v -3 -1 3.5
v -3 -1 -3.5
v -3 0 -3.5
v -3 0 3.5
v -2 0 -3.5
v -2 0 3.5
v -3 -1 2.5
v -3 -1 -2.5
v -4 -1 2.5
v -4 -1 -2.5
v -4 0 -2.5
v -4 0 2.5

vn 0 -1 0
vn -1 0 0
vn 0 0 -1
vn 0 0 1
vn 1 0 0
vn 0 1 0

vt 0.0625 0.0625

usemtl palette(Clone)

f 3/1/1 2/1/1 1/1/1
f 2/1/1 3/1/1 4/1/1
f 3/1/2 5/1/2 4/1/2
f 5/1/2 3/1/2 6/1/2
f 5/1/3 2/1/3 4/1/3
f 2/1/3 5/1/3 7/1/3
f 8/1/4 3/1/4 1/1/4
f 3/1/4 8/1/4 6/1/4
f 8/1/5 2/1/5 7/1/5
f 2/1/5 8/1/5 1/1/5
f 5/1/6 8/1/6 7/1/6
f 8/1/6 5/1/6 6/1/6
f 9/1/1 5/1/1 6/1/1
f 5/1/1 9/1/1 10/1/1
f 9/1/2 11/1/2 10/1/2
f 11/1/2 9/1/2 12/1/2
f 11/1/3 5/1/3 10/1/3
f 5/1/3 11/1/3 13/1/3
f 14/1/4 9/1/4 6/1/4
f 9/1/4 14/1/4 12/1/4
f 14/1/5 5/1/5 13/1/5
f 5/1/5 14/1/5 6/1/5
f 11/1/6 14/1/6 13/1/6
f 14/1/6 11/1/6 12/1/6
f 17/1/1 16/1/1 15/1/1
f 16/1/1 17/1/1 18/1/1
f 17/1/2 19/1/2 18/1/2
f 19/1/2 17/1/2 20/1/2
f 19/1/3 16/1/3 18/1/3
f 16/1/3 19/1/3 21/1/3
f 22/1/4 17/1/4 15/1/4
f 17/1/4 22/1/4 20/1/4
f 22/1/5 16/1/5 21/1/5
f 16/1/5 22/1/5 15/1/5
f 19/1/6 22/1/6 21/1/6
f 22/1/6 19/1/6 20/1/6
f 25/1/1 24/1/1 23/1/1
f 24/1/1 25/1/1 26/1/1
f 25/1/2 27/1/2 26/1/2
f 27/1/2 25/1/2 28/1/2
f 27/1/3 24/1/3 26/1/3
f 24/1/3 27/1/3 29/1/3
f 30/1/4 25/1/4 23/1/4
f 25/1/4 30/1/4 28/1/4
f 30/1/5 24/1/5 29/1/5
f 24/1/5 30/1/5 23/1/5
f 27/1/6 30/1/6 29/1/6
f 30/1/6 27/1/6 28/1/6
f 33/1/1 32/1/1 31/1/1
f 32/1/1 33/1/1 34/1/1
f 33/1/2 35/1/2 34/1/2
f 35/1/2 33/1/2 36/1/2
f 35/1/3 32/1/3 34/1/3
f 32/1/3 35/1/3 18/1/3
f 17/1/4 33/1/4 31/1/4
f 33/1/4 17/1/4 36/1/4
f 17/1/5 32/1/5 18/1/5
f 32/1/5 17/1/5 31/1/5
f 35/1/6 17/1/6 18/1/6
f 17/1/6 35/1/6 36/1/6
f 39/1/1 38/1/1 37/1/1
f 38/1/1 39/1/1 40/1/1
f 39/1/2 41/1/2 40/1/2
f 41/1/2 39/1/2 42/1/2
f 41/1/3 38/1/3 40/1/3
f 38/1/3 41/1/3 43/1/3
f 44/1/4 39/1/4 37/1/4
f 39/1/4 44/1/4 42/1/4
f 44/1/5 38/1/5 43/1/5
f 38/1/5 44/1/5 37/1/5
f 41/1/6 44/1/6 43/1/6
f 44/1/6 41/1/6 42/1/6
f 47/1/1 46/1/1 45/1/1
f 46/1/1 47/1/1 48/1/1
f 47/1/2 49/1/2 48/1/2
f 49/1/2 47/1/2 50/1/2
f 49/1/3 46/1/3 48/1/3
f 46/1/3 49/1/3 51/1/3
f 52/1/4 47/1/4 45/1/4
f 47/1/4 52/1/4 50/1/4
f 52/1/5 46/1/5 51/1/5
f 46/1/5 52/1/5 45/1/5
f 49/1/6 52/1/6 51/1/6
f 52/1/6 49/1/6 50/1/6
f 55/1/1 54/1/1 53/1/1
f 54/1/1 55/1/1 56/1/1
f 55/1/2 57/1/2 56/1/2
f 57/1/2 55/1/2 58/1/2
f 57/1/3 54/1/3 56/1/3
f 54/1/3 57/1/3 59/1/3
f 60/1/4 55/1/4 53/1/4
f 55/1/4 60/1/4 58/1/4
f 60/1/5 54/1/5 59/1/5
f 54/1/5 60/1/5 53/1/5
f 57/1/6 60/1/6 59/1/6
f 60/1/6 57/1/6 58/1/6
f 63/1/1 62/1/1 61/1/1
f 62/1/1 63/1/1 64/1/1
f 63/1/2 65/1/2 64/1/2
f 65/1/2 63/1/2 66/1/2
f 65/1/3 62/1/3 64/1/3
f 62/1/3 65/1/3 67/1/3
f 68/1/4 63/1/4 61/1/4
f 63/1/4 68/1/4 66/1/4
f 68/1/5 62/1/5 67/1/5
f 62/1/5 68/1/5 61/1/5
f 65/1/6 68/1/6 67/1/6
f 68/1/6 65/1/6 66/1/6
f 71/1/1 70/1/1 69/1/1
f 70/1/1 71/1/1 72/1/1
f 71/1/2 73/1/2 72/1/2
f 73/1/2 71/1/2 74/1/2
f 73/1/3 70/1/3 72/1/3
f 70/1/3 73/1/3 75/1/3
f 76/1/4 71/1/4 69/1/4
f 71/1/4 76/1/4 74/1/4
f 76/1/5 70/1/5 75/1/5
f 70/1/5 76/1/5 69/1/5
f 73/1/6 76/1/6 75/1/6
f 76/1/6 73/1/6 74/1/6
f 23/1/1 78/1/1 77/1/1
f 78/1/1 23/1/1 24/1/1
f 23/1/2 29/1/2 24/1/2
f 29/1/2 23/1/2 30/1/2
f 29/1/3 78/1/3 24/1/3
f 78/1/3 29/1/3 79/1/3
f 80/1/4 23/1/4 77/1/4
f 23/1/4 80/1/4 30/1/4
f 80/1/5 78/1/5 79/1/5
f 78/1/5 80/1/5 77/1/5
f 29/1/6 80/1/6 79/1/6
f 80/1/6 29/1/6 30/1/6
f 37/1/1 82/1/1 81/1/1
f 82/1/1 37/1/1 38/1/1
f 37/1/2 43/1/2 38/1/2
f 43/1/2 37/1/2 44/1/2
f 43/1/3 82/1/3 38/1/3
f 82/1/3 43/1/3 10/1/3
f 9/1/4 37/1/4 81/1/4
f 37/1/4 9/1/4 44/1/4
f 9/1/5 82/1/5 10/1/5
f 82/1/5 9/1/5 81/1/5
f 43/1/6 9/1/6 10/1/6
f 9/1/6 43/1/6 44/1/6
f 45/1/1 84/1/1 83/1/1
f 84/1/1 45/1/1 46/1/1
f 45/1/2 51/1/2 46/1/2
f 51/1/2 45/1/2 52/1/2
f 51/1/3 84/1/3 46/1/3
f 84/1/3 51/1/3 85/1/3
f 86/1/4 45/1/4 83/1/4
f 45/1/4 86/1/4 52/1/4
f 86/1/5 84/1/5 85/1/5
f 84/1/5 86/1/5 83/1/5
f 51/1/6 86/1/6 85/1/6
f 86/1/6 51/1/6 52/1/6
f 89/1/1 88/1/1 87/1/1
f 88/1/1 89/1/1 90/1/1
f 89/1/2 91/1/2 90/1/2
f 91/1/2 89/1/2 92/1/2
f 91/1/3 88/1/3 90/1/3
f 88/1/3 91/1/3 93/1/3
f 94/1/4 89/1/4 87/1/4
f 89/1/4 94/1/4 92/1/4
f 94/1/5 88/1/5 93/1/5
f 88/1/5 94/1/5 87/1/5
f 91/1/6 94/1/6 93/1/6
f 94/1/6 91/1/6 92/1/6
f 97/1/1 96/1/1 95/1/1
f 96/1/1 97/1/1 98/1/1
f 97/1/2 99/1/2 98/1/2
f 99/1/2 97/1/2 100/1/2
f 99/1/3 96/1/3 98/1/3
f 96/1/3 99/1/3 56/1/3
f 55/1/4 97/1/4 95/1/4
f 97/1/4 55/1/4 100/1/4
f 55/1/5 96/1/5 56/1/5
f 96/1/5 55/1/5 95/1/5
f 99/1/6 55/1/6 56/1/6
f 55/1/6 99/1/6 100/1/6
f 77/1/1 102/1/1 101/1/1
f 102/1/1 77/1/1 78/1/1
f 77/1/2 103/1/2 78/1/2
f 103/1/2 77/1/2 104/1/2
f 103/1/3 102/1/3 78/1/3
f 102/1/3 103/1/3 105/1/3
f 106/1/4 77/1/4 101/1/4
f 77/1/4 106/1/4 104/1/4
f 106/1/5 102/1/5 105/1/5
f 102/1/5 106/1/5 101/1/5
f 103/1/6 106/1/6 105/1/6
f 106/1/6 103/1/6 104/1/6
f 83/1/1 26/1/1 25/1/1
f 26/1/1 83/1/1 84/1/1
f 83/1/2 85/1/2 84/1/2
f 85/1/2 83/1/2 86/1/2
f 85/1/3 26/1/3 84/1/3
f 26/1/3 85/1/3 107/1/3
f 108/1/4 83/1/4 25/1/4
f 83/1/4 108/1/4 86/1/4
f 108/1/5 26/1/5 107/1/5
f 26/1/5 108/1/5 25/1/5
f 85/1/6 108/1/6 107/1/6
f 108/1/6 85/1/6 86/1/6
f 109/1/1 48/1/1 47/1/1
f 48/1/1 109/1/1 110/1/1
f 109/1/2 111/1/2 110/1/2
f 111/1/2 109/1/2 112/1/2
f 111/1/3 48/1/3 110/1/3
f 48/1/3 111/1/3 113/1/3
f 114/1/4 109/1/4 47/1/4
f 109/1/4 114/1/4 112/1/4
f 114/1/5 48/1/5 113/1/5
f 48/1/5 114/1/5 47/1/5
f 111/1/6 114/1/6 113/1/6
f 114/1/6 111/1/6 112/1/6
f 117/1/1 116/1/1 115/1/1
f 116/1/1 117/1/1 118/1/1
f 117/1/2 119/1/2 118/1/2
f 119/1/2 117/1/2 120/1/2
f 119/1/3 116/1/3 118/1/3
f 116/1/3 119/1/3 90/1/3
f 89/1/4 117/1/4 115/1/4
f 117/1/4 89/1/4 120/1/4
f 89/1/5 116/1/5 90/1/5
f 116/1/5 89/1/5 115/1/5
f 119/1/6 89/1/6 90/1/6
f 89/1/6 119/1/6 120/1/6

